<svg xmlns="http://www.w3.org/2000/svg" viewBox="0 0 316 316" class="logo"><desc>Starbucks Siren</desc><circle cx="158.001" cy="154.753" r="153.284" fill="#fff"></circle><path d="M173.417,67.74a90.02,90.02,0,0,0-30.834,0c-.765.133-1.065-.615-.474-1.056C142.641,66.293,158,54.6,158,54.6s15.358,11.693,15.882,12.084C174.482,67.125,174.182,67.873,173.417,67.74Zm-26.543,75.9a1.774,1.774,0,0,0-1.023,1.007c3.219,2.478,5.439,8.1,12.15,8.1s8.93-5.621,12.14-8.1a1.772,1.772,0,0,0-1.015-1.007,53.482,53.482,0,0,1-11.125.99A53.492,53.492,0,0,1,146.874,143.642ZM158,134.17c-1.863,0-2.278-.707-3.543-.7-1.214.008-3.567.964-4.074,1.854a1.992,1.992,0,0,0,.515,1.206c2.728.416,3.95,1.929,7.1,1.929s4.377-1.513,7.092-1.929a1.957,1.957,0,0,0,.524-1.206c-.507-.89-2.857-1.846-4.071-1.854C160.28,133.463,159.864,134.17,158,134.17ZM311.05,163.152q-.3,5.5-.973,10.894c-17.347,2.878-23.559-12.591-41.322-11.817a112.414,112.414,0,0,1,2.577,11.535c14.67-.009,20.575,13.7,36.875,11.676q-1.274,6.286-3.078,12.391c-12.89,1.272-17.43-11.543-32.349-11.194.116,2.129.182,4.274.182,6.437,0,1.2-.033,2.395-.066,3.584,12.724-.15,16.865,11.609,28.99,11.061q-2.283,6.174-5.073,12.091c-8.715-.482-11.709-11.651-24.965-10.761-.4,2.861-.9,5.7-1.514,8.491,11.527-.807,14,9.8,22.238,10.645q-3.144,5.763-6.769,11.2c-4.89-2.612-9.123-10.512-18.379-11q1.422-4.391,2.5-8.923a38.39,38.39,0,0,1-25.5-10.379c2.545-14.545-20.025-29.348-20.025-40,0-11.56,5.854-17.964,5.854-33.556,0-11.577-5.621-24.126-14.087-32.708a28.5,28.5,0,0,0-5.256-4.225c7.784,9.63,13.771,21.057,13.771,34.288,0,14.686-6.836,22.437-6.836,35.992s19.818,25.282,19.818,39.245c0,5.5-1.755,10.869-7.543,21.414,8.9,8.89,20.491,13.738,27.968,13.738,2.428,0,3.733-.732,4.6-2.644q1.122-2.47,2.129-4.99c8.05.316,11.742,7.642,16.2,10.57q-3.655,4.916-7.7,9.53c-2.994-3.318-7.011-8.89-12.891-10.437-1.047,2.055-2.17,4.067-3.342,6.047,5.064,1.371,8.532,6.486,11.21,9.837-2.886,2.994-5.9,5.872-9.024,8.624-1.954-3.035-5.006-6.91-8.424-8.981q-1.884,2.558-3.925,4.99c2.911,1.971,5.472,5.5,7.135,8.382q-5.413,4.366-11.227,8.242c-1.912-15.568-23.169-26.238-17.439-44.309-1.871,3.185-4.116,7.177-4.116,11.958,0,13.082,13.921,23.453,15.036,36.451q-4.341,2.582-8.849,4.889c-.5-14.287-15.252-29.9-15.252-41.639,0-13.081,17.14-26.221,17.14-41.672s-19.768-26.155-19.768-39.719,8.4-21.364,8.4-38.745A46.391,46.391,0,0,0,202.591,95.8a25.3,25.3,0,0,0-5.24-3.634c8.815,10.57,13.922,20.166,13.922,34.711,0,16.342-9.631,25.415-9.631,41.424s19.394,24.907,19.394,39.818-18.063,27.5-18.063,42.82c0,13.938,15.917,27.868,16.159,44.409-3.485,1.513-7.028,2.91-10.637,4.166,2.029-16.716-15.892-33.955-15.892-47.594,0-14.911,18.736-27.718,18.736-43.8s-19.044-23.56-19.044-40.06,11.693-25.639,11.693-43.867a44.432,44.432,0,0,0-17.273-34.9c-.216-.166-.424-.332-.649-.49-.964-.716-1.755.149-1.072,1,7.251,9.064,11.127,18.221,11.127,31.784,0,16.674-13.423,30.221-13.423,46.388,0,19.061,18.03,24.516,18.03,40.151S181.4,236.268,181.4,252.875c0,15.4,18.3,32.492,15.152,50.272q-5.5,1.422-11.16,2.445c3.426-22.13-14.512-38.03-14.512-52.5,0-15.685,20.017-29.656,20.017-44.974,0-14.437-14.37-19.161-16.25-33.947a3.468,3.468,0,0,0-4.116-3.135c-2.92.532-6.658,2.453-12.531,2.453s-9.613-1.921-12.541-2.453a3.464,3.464,0,0,0-4.108,3.135c-1.879,14.786-16.25,19.51-16.25,33.947,0,15.318,20.009,29.289,20.009,44.974,0,14.47-17.938,30.37-14.512,52.5q-5.65-1.023-11.152-2.445c-3.143-17.78,15.152-34.87,15.152-50.272,0-16.607-19.335-29.114-19.335-44.757s18.03-21.09,18.03-40.151c0-16.167-13.423-29.714-13.423-46.388,0-13.563,3.876-22.72,11.136-31.784.682-.849-.108-1.714-1.081-1-.217.158-.433.324-.649.49a44.448,44.448,0,0,0-17.265,34.9c0,18.228,11.693,27.368,11.693,43.867s-19.044,23.984-19.044,40.06,18.728,28.89,18.728,43.8c0,13.639-17.913,30.878-15.892,47.594-3.61-1.256-7.152-2.653-10.637-4.166.242-16.541,16.15-30.471,16.15-44.409,0-15.319-18.046-27.9-18.046-42.82S114.358,184.3,114.358,168.3s-9.63-25.082-9.63-41.424c0-14.545,5.106-24.141,13.921-34.711A25.352,25.352,0,0,0,113.4,95.8a46.428,46.428,0,0,0-15.393,33.855c0,17.381,8.416,25.182,8.416,38.745s-19.767,24.267-19.767,39.719S103.8,236.709,103.8,249.79c0,11.734-14.753,27.352-15.252,41.639q-4.515-2.307-8.857-4.889c1.115-13,15.044-23.369,15.044-36.451,0-4.781-2.245-8.773-4.124-11.958,5.729,18.071-15.518,28.741-17.431,44.309q-5.812-3.867-11.235-8.242c1.671-2.886,4.233-6.411,7.135-8.382-1.356-1.622-2.67-3.285-3.925-4.99-3.418,2.071-6.462,5.946-8.424,8.981-3.119-2.752-6.138-5.63-9.024-8.624,2.686-3.351,6.146-8.466,11.21-9.837q-1.758-2.97-3.334-6.047c-5.888,1.547-9.905,7.119-12.89,10.437q-4.042-4.615-7.718-9.53c4.466-2.928,8.15-10.254,16.208-10.57q1.011,2.52,2.129,4.99c.874,1.912,2.179,2.644,4.6,2.644,7.485,0,19.078-4.848,27.976-13.738-5.8-10.545-7.551-15.909-7.551-21.414,0-13.963,19.826-25.7,19.826-39.245s-6.836-21.306-6.836-35.992c0-13.231,5.979-24.658,13.771-34.288a28.465,28.465,0,0,0-5.255,4.225c-8.483,8.582-14.1,21.131-14.1,32.708,0,15.592,5.846,22,5.846,33.556,0,10.652-22.562,25.455-20.009,40a38.4,38.4,0,0,1-25.5,10.379q1.072,4.54,2.494,8.923c-9.264.491-13.505,8.391-18.387,11q-3.6-5.451-6.769-11.2c8.241-.849,10.72-11.452,22.238-10.645-.608-2.794-1.115-5.63-1.514-8.491-13.248-.89-16.258,10.279-24.965,10.761Q16.4,213.9,14.114,207.719c12.125.557,16.258-11.211,28.982-11.061-.042-1.189-.058-2.379-.058-3.584,0-2.163.066-4.308.183-6.437-14.919-.349-19.46,12.466-32.358,11.194q-1.785-6.1-3.069-12.391c16.291,2.02,22.2-11.685,36.866-11.676a108.119,108.119,0,0,1,2.586-11.535c-17.772-.774-23.984,14.695-41.323,11.817-.458-3.592-.774-7.227-.973-10.894,20.166,2.262,27.726-14.321,46.088-12.291a107.83,107.83,0,0,1,6-12.724c-23.019-4.042-30.836,15.2-52.259,12.249a153.279,153.279,0,0,1,306.434,0c-21.431,2.953-29.248-16.291-52.268-12.249a107.725,107.725,0,0,1,6.013,12.724C283.324,148.831,290.876,165.414,311.05,163.152ZM92.1,98.868c-11.277-4.616-24.941-3.552-36.617,3.95C53.683,91.957,47.8,82.318,39.4,76.5A1.38,1.38,0,0,0,37.133,77.8c1.78,22.936-11.634,42.862-28.125,60.367,17,5.106,31.469-16.774,53.506-9.131A115.744,115.744,0,0,1,92.1,98.868ZM158,85c-14.229,0-26.146,8.05-29.273,18.445-.241.8.083,1.314,1.006.9a21,21,0,0,1,8.641-1.7c5.805,0,10.919,2.137,13.938,5.838,1.347,4.416,1.455,10.811-.058,14.453-2.387-.532-3.252-2.386-5.58-2.386s-4.142,1.646-8.1,1.646-4.424-1.871-7.018-1.871c-3.061,0-3.626,3.152-3.626,6.711,0,15.851,14.57,37.673,30.071,37.673s30.069-21.822,30.069-37.673c0-3.559-.731-6.6-3.933-7.018a9.651,9.651,0,0,1-6.711,2.178c-3.959,0-5.048-1.646-7.385-1.646-2.811,0-2.528,5.937-5.88,6.27-2.216-5.356-2.332-12.216-.478-18.337,3.023-3.7,8.138-5.838,13.942-5.838a20.882,20.882,0,0,1,8.633,1.7c.922.415,1.247-.1,1.014-.9C184.145,93.046,172.228,85,158,85Zm22.651,22.745c-3.409,0-7.409,1.048-9.929,3.85a3.8,3.8,0,0,0,.108,2.653c6.187-2.12,11.651-2.2,14.279.741a4.756,4.756,0,0,0,1.855-3.759C186.965,109.163,184.877,107.741,180.652,107.741Zm-49.762,7.244c2.978-2.986,9.273-2.861,15.8-.45.283-3.251-5.53-6.794-11.343-6.794-4.225,0-6.321,1.422-6.321,3.485A4.742,4.742,0,0,0,130.89,114.985ZM228.944,61.32a50.58,50.58,0,0,0-28.882,11.086,113.917,113.917,0,0,1,12.99-25.872c-14.287,1.513-26.254,6.752-34.977,15.684l-6.837-17.9,15.169-13.4L166.1,29.485,158,10.608l-8.1,18.877-20.308,1.431,15.16,13.4-6.827,17.905c-8.732-8.932-20.691-14.171-34.986-15.684a114.27,114.27,0,0,1,13,25.872A50.6,50.6,0,0,0,87.047,61.32a136,136,0,0,1,17.14,27.826,1.865,1.865,0,0,0,2.736.915,115.124,115.124,0,0,1,102.154,0,1.857,1.857,0,0,0,2.728-.915A135.649,135.649,0,0,1,228.944,61.32Zm24.525,67.719c22.046-7.643,36.517,14.237,53.515,9.131-16.491-17.5-29.9-37.431-28.134-60.367a1.369,1.369,0,0,0-2.245-1.306c-8.4,5.821-14.288,15.46-16.1,26.321-11.676-7.5-25.332-8.566-36.617-3.95A115.569,115.569,0,0,1,253.469,129.039Z" fill="#006241"></path><g fill="#006241" class="trademark"><path d="M259.357,302.656c2.22-.237,3.925-1.372,3.925-4.075,0-2.844-1.663-4.241-5.181-4.241H252.48v14.882h2.261v-6.4h2.421l4.041,6.4h2.437Zm-2.278-1.684h-2.338v-4.786h2.969c1.547,0,3.327.229,3.327,2.283C261.037,300.873,259.083,300.972,257.079,300.972Z"></path><path d="M257.336,289.068a12.732,12.732,0,1,0,12.741,12.723A12.64,12.64,0,0,0,257.336,289.068Zm0,23.613a10.889,10.889,0,1,1,10.487-10.89A10.546,10.546,0,0,1,257.336,312.681Z"></path></g></svg>